PathFileType	4	(X/Y/Z)	c:/Users/goper/Files/vsCode/490R/osim_files/C11/C11_Slow_06.trc
DataRate	CameraRate	NumFrames	NumMarkers	Units                	OrigDataRate	OrigDataStartFrame	OrigNumFrames
120.00	120.00	6	36	mm	120.0	743	1188
                Frame#	Time	LPSIS			LASIS			LTH1			LTH2			LTH3			LTH4			LLFE			LMFE			LSH1			LSH2			LSH3			LSH4			LLMAL			LMMAL			LCAL			LMTP5			LTOE			LMTP1			RPSIS			RASIS			RTH1			RTH2			RTH3			RTH4			RLFE			RMFE			RSH1			RSH2			RSH3			RSH4			RLMAL			RMMAL			RCAL			RMTP1			RTOE			RMTP5		
		X1	Y1	Z1	X2	Y2	Z2	X3	Y3	Z3	X4	Y4	Z4	X5	Y5	Z5	X6	Y6	Z6	X7	Y7	Z7	X8	Y8	Z8	X9	Y9	Z9	X10	Y10	Z10	X11	Y11	Z11	X12	Y12	Z12	X13	Y13	Z13	X14	Y14	Z14	X15	Y15	Z15	X16	Y16	Z16	X17	Y17	Z17	X18	Y18	Z18	X19	Y19	Z19	X20	Y20	Z20	X21	Y21	Z21	X22	Y22	Z22	X23	Y23	Z23	X24	Y24	Z24	X25	Y25	Z25	X26	Y26	Z26	X27	Y27	Z27	X28	Y28	Z28	X29	Y29	Z29	X30	Y30	Z30	X31	Y31	Z31	X32	Y32	Z32	X33	Y33	Z33	X34	Y34	Z34	X35	Y35	Z35	X36	Y36	Z36

743	6.18333	-1610.10095	972.76666	327.06369	-1784.30017	976.59247	404.24081	-1677.92529	580.28802	440.14609	-1682.66772	532.51587	440.96228	-1735.04138	579.07935	461.25204	-1731.88574	533.15167	456.90778	0.00000	0.00000	0.00000	-1693.78979	472.20990	448.87082	-1594.34045	441.39502	456.31012	-1560.29163	413.56448	456.24603	-1629.10352	392.01105	466.44440	-1590.10693	369.49484	463.93207	-1359.57837	229.91367	408.99976	-1398.64160	214.77980	319.64401	-1306.03613	260.94992	348.33966	-1362.76843	105.49969	436.83600	-1429.10571	66.69516	375.11307	-1399.59973	83.32320	326.65823	-1617.01770	989.66345	244.68063	-1787.30908	975.99567	173.72289	-1809.81055	620.23206	141.56860	-1827.68445	580.38684	151.73184	-1870.67505	639.36151	153.03952	-1877.15515	596.93878	159.87581	-1874.48230	510.44714	174.93802	-1844.84814	490.95648	283.63901	-1824.19373	394.75110	156.27698	-1832.79175	349.35239	161.12024	-1884.95691	397.91580	169.20747	-1885.41833	351.26401	170.22440	-1857.68408	94.35325	219.29602	-1885.49048	107.21080	314.12292	-1796.72339	59.26521	276.00211	-2014.08997	53.04932	292.19446	-2015.98523	67.18878	241.50198	-1973.70032	42.57286	181.86293
744	6.19167	-1618.53247	973.31439	325.99063	-1792.43750	977.58698	403.40482	-1694.06201	579.66956	438.59982	-1699.68713	531.98706	439.41757	-1750.86987	579.48926	460.35666	-1748.68604	533.56305	455.96707	0.00000	0.00000	0.00000	-1712.80688	472.72043	448.37433	-1614.64941	443.27637	456.09244	-1579.74255	416.04385	455.99176	-1648.38831	393.28894	465.89883	-1608.87390	371.39996	463.59650	-1376.42395	238.74377	409.61472	-1414.13525	221.39377	319.74161	-1324.25476	272.20572	349.26056	-1374.31775	113.98808	437.76251	-1438.43140	67.83099	376.02795	-1408.73230	89.51410	327.84448	-1625.58972	990.73785	243.69193	-1796.19971	977.51178	172.99098	-1815.85632	620.97925	140.81519	-1833.32031	580.89148	151.14610	-1877.49792	639.22498	153.01787	-1883.50439	597.57727	158.97421	-1879.03650	510.45480	174.40349	-1849.59473	491.40268	283.35391	-1826.45093	395.34946	157.02725	-1834.18481	350.11853	161.84566	-1887.58069	397.53986	168.84439	-1887.31860	350.90012	169.92255	-1857.66968	94.39421	219.37944	-1885.50305	107.14417	314.12686	-1796.71216	59.22663	276.01123	-2014.05664	52.88576	292.19028	-2016.02869	67.00091	241.51991	-1973.72791	42.55753	181.85402
745	6.20000	-1626.62402	974.22461	324.86768	-1800.33398	978.68024	402.63599	-1709.82495	579.66663	436.88046	-1716.49487	532.07251	437.73706	-1766.37744	580.48914	459.49246	-1765.25110	534.53357	454.97958	0.00000	0.00000	0.00000	-1732.56946	472.79453	446.66998	-1634.36340	445.37985	455.43481	-1599.15247	418.64551	455.64032	-1667.58179	394.87274	465.22162	-1627.87036	373.51144	463.02664	-1394.13257	246.63725	410.05444	-1430.45569	227.11421	319.67807	-1343.29565	282.26102	349.76926	-1387.78723	121.47613	437.72708	-1446.56909	67.68754	377.25433	-1418.70996	94.94363	329.16956	-1634.22217	991.78912	242.64400	-1805.05945	979.12201	172.15808	-1821.78418	621.76544	140.05852	-1838.83337	581.46027	150.54315	-1883.47119	639.44604	152.39301	-1888.97937	597.68097	158.57855	-1883.05750	510.28833	173.96741	-1853.89148	491.85895	282.94052	-1828.71106	395.86331	157.51996	-1835.78662	350.59671	162.37788	-1889.93152	397.15005	168.34312	-1889.28516	350.65393	169.67110	-1857.69897	94.48495	219.44450	-1885.48999	107.14940	314.12189	-1796.63611	59.30329	275.98810	-2014.02417	52.80219	292.19266	-2016.00024	66.91195	241.52972	-1973.76343	42.57200	181.84224
746	6.20833	-1634.19470	975.41705	323.57574	-1808.20459	979.98206	401.87671	-1725.41528	580.11731	434.90421	-1733.26978	532.63965	435.98691	-1781.94312	582.02405	458.48474	-1781.69507	536.02002	453.93665	0.00000	0.00000	0.00000	-1751.30786	474.37949	446.00894	-1654.34216	447.40186	454.93710	-1618.58899	421.23764	455.18652	-1686.80493	396.92880	464.45059	-1647.00330	375.79767	462.44055	-1412.00281	253.43768	410.32858	-1447.03210	231.74879	319.49234	-1362.42078	290.65509	349.91714	-1401.37195	128.84892	438.72729	-1457.05347	71.99883	378.27667	-1429.71460	100.07368	330.22104	-1642.16968	993.20886	241.53949	-1812.11182	980.01514	171.78452	-1827.39209	622.53595	139.38293	-1843.96130	582.12537	149.89151	-1889.20691	639.68408	151.92781	-1894.89148	597.69012	158.60614	-1887.09778	510.28555	173.61382	-1858.13574	492.88538	282.37524	-1831.43555	396.16254	157.82970	-1837.64746	351.19534	162.14581	-1892.28113	396.87314	167.96594	-1891.15125	350.44678	169.47905	-1857.76819	94.53231	219.50125	-1885.61646	107.20955	314.09247	-1796.68665	59.40963	276.00616	-2014.17859	52.79818	292.20062	-2016.07495	66.83812	241.59219	-1973.76184	42.55145	181.84227
747	6.21667	-1642.83960	976.31006	322.77472	-1816.10657	981.42072	401.00449	-1741.34375	580.90063	433.18713	-1749.81067	533.56647	434.23773	-1797.12585	583.76221	457.42560	-1797.93835	537.78076	452.88190	0.00000	0.00000	0.00000	-1769.57617	476.43716	445.13461	-1674.02112	449.57828	454.33328	-1637.69641	423.83008	454.59174	-1705.86340	399.08817	463.48682	-1665.88074	378.27783	461.72491	-1429.16248	259.51340	410.40555	-1463.32678	236.17369	319.41461	-1380.33093	297.31680	349.61877	-1415.88464	135.61070	439.96661	-1470.00940	77.08936	379.76529	-1443.06458	104.94596	331.54932	-1650.31653	994.56879	240.55989	-1820.43872	981.60126	170.94189	-1834.21790	622.90918	136.33998	-1848.97095	582.69574	149.23012	-1894.68213	639.77997	151.82275	-1899.24426	597.32117	158.50711	-1890.74097	510.15970	173.12173	-1861.71082	493.09763	282.14682	-1833.87305	396.47379	157.55617	-1839.61975	351.32416	162.31100	-1894.69531	396.66229	167.71263	-1893.13257	350.26379	169.23175	-1857.81287	94.57116	219.54715	-1885.63342	107.21061	314.05331	-1796.46667	59.48556	275.77469	-2014.16284	52.70229	292.16989	-2016.08826	66.72791	241.59212	-1973.80786	42.54871	181.81937
748	6.22500	-1650.64612	977.56506	321.79440	-1824.01917	983.10376	400.21765	-1756.87354	581.95880	431.45175	-1766.12354	534.84821	432.55270	-1812.36597	585.89929	456.34021	-1813.93372	539.95026	451.76935	0.00000	0.00000	0.00000	-1787.61938	478.77008	444.18289	-1693.22583	452.14203	453.55777	-1656.54199	426.62045	453.96158	-1724.63110	401.55115	462.46338	-1684.58447	380.96432	461.00317	-1445.83374	265.03601	410.22919	-1480.11243	240.62317	319.46191	-1397.24915	302.44354	349.01767	-1431.98291	141.60196	441.24185	-1486.09900	81.99137	381.90247	-1459.23169	109.44135	333.30862	-1658.37317	995.88763	239.53337	-1828.65588	983.14960	170.17474	-1839.48071	623.53180	135.76222	-1853.70972	583.29279	148.51509	-1900.14172	639.83386	151.69527	-1904.10132	597.42664	158.25372	-1894.19556	510.03467	172.70049	-1864.33118	492.84781	281.66925	-1836.23608	396.66187	157.05167	-1842.25623	351.38220	161.58833	-1897.16113	396.52542	167.46880	-1895.29553	350.09326	168.89014	-1857.81189	94.62354	219.56226	-1885.60034	107.18798	314.02460	-1796.48145	59.52000	275.81998	-2014.10303	52.58806	292.18854	-2016.06396	66.60472	241.58104	-1973.79370	42.51105	181.82886
